/* XPM */
static char *pinta[] = {
/* columns rows colors chars-per-pixel */
"64 64 215 2 ",
"   c None",
".  c #020202",
"X  c #0E0E0E",
"o  c #151515",
"O  c #1C1C1C",
"+  c #232323",
"@  c #2B2B2B",
"#  c #343434",
"$  c #3C3C3C",
"%  c #5E3F1F",
"&  c #663906",
"*  c #6A3A05",
"=  c #673808",
"-  c #6B3C09",
";  c #653704",
":  c #723F07",
">  c #713F09",
",  c #543E28",
"<  c #754106",
"1  c #7A4409",
"2  c #78430A",
"3  c #6A4319",
"4  c #734716",
"5  c #654423",
"6  c #794F25",
"7  c #6C543C",
"8  c #755736",
"9  c #364766",
"0  c #27497C",
"q  c #2D456B",
"w  c #424242",
"e  c #4B4B4B",
"r  c #464B5A",
"t  c #565655",
"y  c #5B5B5B",
"u  c #5B5956",
"i  c #635648",
"p  c #625F5B",
"a  c #625B54",
"s  c #7B6954",
"d  c #7A6348",
"f  c #434E63",
"g  c #445875",
"h  c #5F6061",
"j  c #5B626C",
"k  c #54647A",
"l  c #626262",
"z  c #6B6B6A",
"x  c #6A6865",
"c  c #77736D",
"v  c #757575",
"b  c #7B7773",
"n  c #7B7B7B",
"m  c #79797A",
"M  c #716D6B",
"N  c #8B4D0A",
"B  c #864A0A",
"V  c #955209",
"C  c #814C13",
"Z  c #985A17",
"A  c #8A5013",
"S  c #A85C0B",
"D  c #9D601F",
"F  c #AF600C",
"G  c #A86115",
"H  c #B76B1A",
"J  c #B8640C",
"K  c #805629",
"L  c #835D35",
"P  c #896237",
"I  c #99642C",
"U  c #A2682A",
"Y  c #AB7336",
"T  c #C46B0E",
"R  c #C96E0E",
"E  c #CE700F",
"W  c #CE7211",
"Q  c #907252",
"!  c #A07D54",
"~  c #897A68",
"^  c #837D75",
"/  c #7F807D",
"(  c #A58259",
")  c #84827D",
"_  c #898279",
"`  c #998A75",
"'  c #A6947C",
"]  c #1E4886",
"[  c #234A84",
"{  c #234E8A",
"}  c #28528B",
"|  c #335789",
" . c #295591",
".. c #2F5C97",
"X. c #315B94",
"o. c #325D98",
"O. c #395E93",
"+. c #3A6397",
"@. c #3B6AA3",
"#. c #3D70AB",
"$. c #566D87",
"%. c #5B718D",
"&. c #4A6D95",
"*. c #787D82",
"=. c #627B97",
"-. c #6B7888",
";. c #4773A2",
":. c #4D79A9",
">. c #4574A9",
",. c #567DA7",
"<. c #497CB5",
"1. c #527EB2",
"2. c #7A8188",
"3. c #798798",
"4. c #6A8099",
"5. c #5B81AA",
"6. c #4C81BB",
"7. c #5581B1",
"8. c #5B85B4",
"9. c #5888BB",
"0. c #6688AC",
"q. c #618DBD",
"w. c #668AB2",
"e. c #7796B9",
"r. c #758EAA",
"t. c #5C8CC1",
"y. c #6592C4",
"u. c #6C97C6",
"i. c #729DCA",
"p. c #769BC4",
"a. c #78A0CC",
"s. c #7DA6D2",
"d. c #828282",
"f. c #868984",
"g. c #898A85",
"h. c #8C8D8A",
"j. c #91928D",
"k. c #828B95",
"l. c #888D94",
"z. c #949592",
"x. c #989A96",
"c. c #9C9D9A",
"v. c #979897",
"b. c #8D9395",
"n. c #A39E99",
"m. c #A49789",
"M. c #9EA09D",
"N. c #A4A39C",
"B. c #869EB7",
"V. c #919BA7",
"C. c #8AA1B9",
"Z. c #94A6B9",
"A. c #98A0A8",
"S. c #A4A5A3",
"D. c #ABACAB",
"F. c #A8A8A8",
"G. c #B0B0AF",
"H. c #B8B2AC",
"J. c #ACB3BA",
"K. c #B4B4B4",
"L. c #B8B8B7",
"P. c #BCBCBB",
"I. c #B6B8B9",
"U. c #AAAAA9",
"Y. c #C0C0BF",
"T. c #819FC0",
"R. c #86A5C6",
"E. c #99ADC4",
"W. c #86ABD3",
"Q. c #94B5D9",
"!. c #97B5D6",
"~. c #8DB1D7",
"^. c #AAB6C4",
"/. c #A8B9CA",
"(. c #B6BDC5",
"). c #A5BED9",
"_. c #BAC2CA",
"`. c #B8C6D6",
"'. c #A9C3DE",
"]. c #ABC6E2",
"[. c #ACC6E2",
"{. c #B3CBE4",
"}. c #BBCEE3",
"|. c #B8CFE8",
" X c #BDD1E8",
".X c #BFD2E7",
"XX c #C4C4C4",
"oX c #C5C9CC",
"OX c #CCCCCC",
"+X c #C6C7C8",
"@X c #D0CFCE",
"#X c #D1D0CF",
"$X c #CBCED1",
"%X c #C5CCD5",
"&X c #CDD2D7",
"*X c #D4D4D4",
"=X c #D3D6DA",
"-X c #DCDCDC",
";X c #D6D8D9",
":X c #C1D4E9",
">X c #CCDCED",
",X c #C8D6E6",
"<X c #D5DDE4",
"1X c #D5DDE6",
"2X c #DEE4E9",
"3X c #D9E5F1",
"4X c #E4E4E4",
"5X c #E4E6E8",
"6X c #EBECEC",
"7X c #E4E8EC",
"8X c #E5ECF2",
"9X c #EEF2F6",
"0X c #F3F3F3",
"qX c #FDFDFC",
"wX c #F4F7F9",
/* pixels */
"                                                                                                        = =                     ",
"                                                                                                        : :                     ",
"                                                                                                    ; - 1 C 2 -                 ",
"                                                                                                    : 1 C C 2 -                 ",
"                                                                                                ; : B N 1 2                     ",
"                                                                                                : 1 V V 2 *                     ",
"                                                                                            * < N V V N < *                     ",
"                                                                                            , 5 6 K 6 5 5 ,                     ",
"                                                                                    [ [ [ 0 q 9 f f r r 9 9                     ",
"                                                                                    +.O.X.X.o.o.X.X.| | } {                     ",
"                                                                            }  .o.;.8.8.1.1.8.7.<.>.@.+... .} {                 ",
"                                                                            {  .@.7.p.R.u.y.u.u.9.6.<.>.@...} {                 ",
"                                                                            [ X.1.i.!.!.i.y.i.i.t.6.6.<.<.@. .]                 ",
"                                                                            ] o.9.W.).!.i.y.i.u.t.6.6.6.6.#. .]                 ",
"                                                                            ] o.9.s.!.!.i.y.u.u.t.6.6.6.6.#. .]                 ",
"                                                                            0 X.1.u.T.e.w.8.w.0.,.:.:.:.>.@. .]                 ",
"                                                                        * , q X.;.,.=.=.%.$.$.$.$.$.$.&.&.+.} ]                 ",
"                                                                        * % r g %.=.3.3.k.k.k.k.k.k.3.3.=.$.| 0                 ",
"                                                                    * * * 3 7 M d.A._.*X=X=X=X=X=X=X=X+XF.3.k g                 ",
"                                                                    * - 1 C L ~ n.XX6XqXqXqXqXqXqXqXqX6X*XF.*.j                 ",
"                                                                * = * 1 V D Q _ XX6XwXqXqXqXqXqXqXqXqXwX0X*Xv.n                 ",
"                                                                = - 2 N G Y ~ n.-XqXqXqXwXwXwX0X0X0X0XwXwX4XK.v.                ",
"                                                            = = ; < V G U ! m.P.6XqXqXwXwX6X6X4X4X4X-X4X5X-XOXD.n y             ",
"                                                            = = < N J H I ! U.*X0XqXqXwX0X6X4X-X;X;X*X*X;X;X;XK.n y             ",
"                                                        = = = < V F R H P ~ H.-X0XqXqXwX0X6X2X<X;X*X*X*X*X;X-XP.n y             ",
"                                                        = * : N F R R H L ~ K.<X8XwXwX9X7X1X:X`.`._._._.(.oX=XP.n y             ",
"                                                    = = = : N S R E J Z 8 b J.,X>X3X8X3X:X'.~.R.p.e.e.e.e.Z.`.J.m u             ",
"                                                    3 - : B S T E T S A 7 v J.:X:X:X3X>X{.Q.a.y.9.8.7.,.,.e./.J.m y             ",
"                                                ^ s 8 4 N S R W J S B 4 7 n ^.:X X:X>X>X{.Q.a.y.q.8.7.:.;.0.E.Z.*.h             ",
"                                                ^ ~ s P I H W R S N : 3 i n ^. X|. X:X:X[.Q.a.y.q.8.7.:.;.5.R.Z.*.z             ",
"                                                ) ) ^ ~ ! Y H S N < * 3 i *.^. X}.}..X}.].Q.a.y.q.8.7.:.;.5.R.Z.2.v             ",
"                                                x.c.N.n.' ( U Z 2 * = 5 a *.^. X{.[.}.{.'.~.i.y.q.8.7.:.;.5.C.C.3.-.            ",
"                                            f.x.K.XXOXXXN.` Q K 4 *     p *.^. X[.].[.[.!.~.i.y.9.8.7.:.;.,.B.C.r.=.            ",
"                                            z.F.+X-X5X*XG.j.~ d 3 ;     l *.^.:X{.{.}.}.].!.W.a.p.e.w.w.5.0.C.Z.r.0.            ",
"                                        f.v.D.XX;X5X6X*XG.z.f.^         y *.(.>X>X,X1X1X,X:X`.)././.E.Z.B.C.E.Z.V.b.            ",
"                                        j.S.XX-X5X4X-X+XU.z.h.g.        y d._.7X3X2X5X5X5X1X,X&X%X%X_.(.^.^./.^.F.c.            ",
"                                    g.j.N.P.-X0X6X-XXXD.x.h.            a ) OX0X9X9X6X6X6X5X<X<X=X*X&X$XoXoX$XoXP.n.c a         ",
"                                    h.x.L.*X6X0X-X+XD.c.j.g.            a ) @XwXwX0X0X6X6X4X<X=X*X*X*X*X*X*X*X*XXXS.c a         ",
"                                    z.D.*X6X6X-XXXD.x.j.                u ) OXwXwX0X0X6X5X-X#XOXOXOXOXOXOX*X*X*XXXF.v p         ",
"                                    G.XX6X0X-XXXU.v.h.g.                u d.OXwXwX0X6X4X*XOXXXP.P.P.XXXX+XOX*X*XOXD.n l         ",
"                                j.D.*X5X6X-XY.S.z.h.                    t d.*XwXwX6X4X*XXXL.K.K.K.K.K.L.(._.$X*X*XK.n l         ",
"                                S.P.4X0X-XXXS.z.h.f.                    u d.*XwXwX5X*XXXK.D.D.K.G.G.G.G.J.(.oX*X*XK.n y         ",
"                            n x.XX-X6X4XP.S.z.h.                        y f.*XwX0X-XXXP.K.K.K.K.K.K.K.K.K.I.XX$X;XP.n y         ",
"                            v g.K.*X*XXXN.j.h.g.                        l g.*XwX6X*XXXL.P.P.P.L.L.K.K.K.K.L.P.OX-XXXn u         ",
"                    w t x z l x f.v.M.c.j.h.                            x h.*X0X-XOXXXP.P.P.P.P.P.P.P.P.P.P.P.OX-XXXn u         ",
"                    e u v v y u l M / f.g.g.                            x z.*X0X;XOXOXXXXXXXXXXXXXXXP.P.P.P.P.XX-XXXd.y         ",
"                @ $ e x f.g.x u t l v d.                                v z.*X6X;XOXOXOX+XXXXXXXXXXXXXXXP.P.P.XX;XXXf.l         ",
"                # w t x d.d.x u e t M )                                 z d.K.XXL.D.D.D.D.D.D.D.F.F.D.S.S.S.S.D.K.S.n l         ",
"            o + $ e t u h y u t e e                                 y p p x n d.n n v v n n v v v v v v v v v v n v x p l x     ",
"            o + $ e e e e e e e w $                                 l z b ) d.f.f.d.d.d.d.d.d.d.d.d.d.d.d.d.d.d.d.) ^ b x l     ",
"        . . o + @ # $ $ $ $ w $ $ #                                 z f.L.#X@XOXOXOXOXOXOXOXOXOXOXOXOXOXXXXXXXXXXXXXXXU.v u     ",
"        . . X O + + @ @ # # # # # #                                 v z.*XwXwX0X0X0X0X0X0X0X6X6X6X6X6X6X6X6X5X5X5X5X5XXXn t     ",
"    . . . . . X o O O + @ @ @ @                                     M j.OX6X6X6X7X7X5X5X5X5X5X4X4X4X-X-X-X-X-X;X;X-X-XP.v t     ",
"    . . . . . . X o O O + + + +                                     x d.D.XXXX(.(.(.P.P.P.P.P.P.P.K.K.K.K.K.K.K.K.K.K.c.z u     ",
"                                                                    l x v n n n m m m n n n n n n n v v v v v v v v v z l y     ",
"                                                                    y y u t t t t t t t t t t t t t t t t t t t t t t u y h     ",
"                                                                                                                                ",
"                                                                                                                                ",
"                                                                                                                                ",
"                                                                                                                                ",
"                                                                                                                                ",
"                                                                                                                                ",
"                                                                                                                                ",
"                                                                                                                                "
};
