/* XPM */
static char *pinta[] = {
/* columns rows colors chars-per-pixel */
"42 42 188 2 ",
"   c None",
".  c #010101",
"X  c #080808",
"o  c #151515",
"O  c #1A1A1A",
"+  c #2B2B2B",
"@  c #252525",
"#  c #343434",
"$  c #3A3A3A",
"%  c #663906",
"&  c #6A3A06",
"*  c #663908",
"=  c #683908",
"-  c #733F05",
";  c #613D18",
":  c #523D2B",
">  c #6C400E",
",  c #73410A",
"<  c #7B450A",
"1  c #7B4509",
"2  c #754612",
"3  c #624627",
"4  c #704B22",
"5  c #3D475C",
"6  c #304364",
"7  c #274A7F",
"8  c #4A4A4A",
"9  c #444444",
"0  c #484B59",
"q  c #545454",
"w  c #5B5B5B",
"e  c #625F5C",
"r  c #63605D",
"t  c #7D6A54",
"y  c #4A5567",
"u  c #636363",
"i  c #6D6D6D",
"p  c #6E6A66",
"a  c #726E6A",
"s  c #776F65",
"d  c #74706C",
"f  c #7D7367",
"g  c #6A6E72",
"h  c #747474",
"j  c #7B7773",
"k  c #737679",
"l  c #7B7B7C",
"z  c #844A0A",
"x  c #8C4E0C",
"c  c #97530A",
"v  c #9F5D14",
"b  c #A65A0A",
"n  c #AD5F0C",
"m  c #A15D14",
"M  c #B7640B",
"N  c #A9651D",
"B  c #B96E1D",
"V  c #8D5821",
"C  c #815F3F",
"Z  c #80603B",
"A  c #946735",
"S  c #A76C2E",
"D  c #CA6E0D",
"F  c #C16A0E",
"G  c #CE710F",
"H  c #83725F",
"J  c #927556",
"K  c #A97C48",
"L  c #827B6E",
"P  c #817B70",
"I  c #7F807D",
"U  c #88827D",
"Y  c #938673",
"T  c #A2917A",
"R  c #1E4885",
"E  c #1D4988",
"W  c #224C89",
"Q  c #264B82",
"!  c #25518D",
"~  c #295592",
"^  c #2E5B93",
"/  c #315D97",
"(  c #33619C",
")  c #3C669E",
"_  c #3969A3",
"`  c #415F87",
"'  c #586F8D",
"]  c #496E9B",
"[  c #456B9E",
"{  c #4A719A",
"}  c #5A7899",
"|  c #737C86",
" . c #657C94",
".. c #406CA5",
"X. c #4A74A4",
"o. c #4773A2",
"O. c #527EAD",
"+. c #467BB5",
"@. c #507DB4",
"#. c #78889A",
"$. c #4C80B9",
"%. c #5A87B6",
"&. c #5C88B7",
"*. c #5084BD",
"=. c #5381B7",
"-. c #6987A8",
";. c #638CBC",
":. c #708FB1",
">. c #6D90B5",
",. c #7694B4",
"<. c #7897B9",
"1. c #618FC2",
"2. c #6492C3",
"3. c #6C98C7",
"4. c #749CC6",
"5. c #76A0CD",
"6. c #7CA2CB",
"7. c #848483",
"8. c #868984",
"9. c #8C8D8C",
"0. c #898B85",
"q. c #8F918C",
"w. c #91938E",
"e. c #9D958D",
"r. c #838C97",
"t. c #929292",
"y. c #9C9D9B",
"u. c #979893",
"i. c #948B84",
"p. c #A1A19F",
"a. c #8F9FB2",
"s. c #8693A2",
"d. c #8CA2BA",
"f. c #97A4B3",
"g. c #A3A3A2",
"h. c #ACADAB",
"j. c #A7A8A5",
"k. c #B0AFAF",
"l. c #B4B3AF",
"z. c #ACAFB2",
"x. c #AEB5BB",
"c. c #B4B4B3",
"v. c #BCBCBC",
"b. c #B7B8B8",
"n. c #C1BDB9",
"m. c #C2C1BE",
"M. c #88A3C1",
"N. c #9FB6CE",
"B. c #8AAED3",
"V. c #99B7D8",
"C. c #97AEC7",
"Z. c #B4BCC5",
"A. c #B5BFCB",
"S. c #A6B8CB",
"D. c #BEC6CF",
"F. c #BFC3C6",
"G. c #A6C0DB",
"H. c #B6C7D9",
"J. c #B7C6D5",
"K. c #ADC8E3",
"L. c #A7C3E1",
"P. c #B4CBE4",
"I. c #B7CEE8",
"U. c #BED1E6",
"Y. c #C3C3C4",
"T. c #CBCCCB",
"R. c #C7C9CA",
"E. c #CFD0CE",
"W. c #CACED1",
"Q. c #C4CDD6",
"!. c #CBD3DA",
"~. c #D3D3D3",
"^. c #D4D7DA",
"/. c #DCDCDC",
"(. c #D8D7D6",
"). c #C9D8E9",
"_. c #D3DBE3",
"`. c #D8DEE3",
"'. c #D9E5F2",
"]. c #E3E4E4",
"[. c #E3E6E9",
"{. c #EBEBEB",
"}. c #E5E9ED",
"|. c #E8EDF2",
" X c #EFF0F0",
".X c #F4F4F4",
"XX c #FDFDFD",
"oX c #F4F7F9",
/* pixels */
"                                                                    =               ",
"                                                                  * < <             ",
"                                                                & 1 z <             ",
"                                                              & 1 c 1               ",
"                                                            * < c x ,               ",
"                                                        Q 7 6 0 0 0 5               ",
"                                                      [ [ ) .._ ( / ~ !             ",
"                                                  ! ) ;.6.1.3.2.$.+._ ~ W           ",
"                                                  W @.B.V.2.4.2.*.$.+./ R           ",
"                                                  W =.B.V.2.3.2.*.$.+.( R           ",
"                                                : Q X.:.-.} } } { { [ ^ R           ",
"                                              & ; y ' #.#.r.r.r.r.#. .` 7           ",
"                                            = & 2 C i.Y. X.XoXoXoX{.v.| y           ",
"                                          = = z N t m.oXXXXXXXXXXXXX.Xk.l           ",
"                                        * % z m S e.].XXXXoX{.{.{.].{.T.p.u         ",
"                                      * = 1 M N J n.{.XXXX{.]./.(.(././.h.u         ",
"                                    = = 1 n D N H R. XXXoX}._.!.W.W.R.^.b.u         ",
"                                  = % 1 b G M V s D.).'.'.P.B.4.<.>.:.S.z.u         ",
"                                f 4 < b G F c 4 d J.U.).).L.5.1.&.O.X.M.f.u         ",
"                                P t A B D c - 3 h H.I.U.).G.5.2.&.O.o.<.f.g         ",
"                                w.u.T K v , & 3 k H.P.P.P.V.5.2.&.O.o.,.a.|         ",
"                              y.R.(.l.Y Z >     k H.K.L.K.V.4.2.&.O.X.,.a.-.        ",
"                          8.p.m.].].v.w.L       k Q.).)._.U.G.N.C.d.<.d.f.s.        ",
"                          u.v.].].~.h.w.9.      j _.|.}.{.[._.!.W.D.Z.A.Z.g.j       ",
"                        w.c.]..X(.h.u.0.        j ].oX.X{.{.`.^.(.~.E.(.~.k.a       ",
"                        j.].{.~.j.w.            h ].oX.X{./.T.Y.Y.T.T.~.~.b.h       ",
"                      h./.{.~.j.w.              h {.oX{.(.v.b.b.b.b.Z.W.~.Y.h       ",
"                    j.T..XE.j.q.8.              l {.oX/.Y.c.l.c.l.c.x.F.~.R.h       ",
"                  h g.(.~.p.9.0.                l {.{.T.b.b.b.b.b.b.b.v.T.~.h       ",
"              q h w u 7.q.9.                    7.{./.R.Y.Y.v.v.v.v.b.b.R.(.h       ",
"          + 9 u 9.i q u I                       0.]./.R.R.Y.Y.Y.Y.Y.v.b.Y.~.l       ",
"          $ 8 u h u q q                       e a y.y.t.9.9.9.9.9.9.0.0.9.u.p r     ",
"        O $ 8 8 8 8 9 $                     u d U 7.7.7.7.7.7.7.7.7.7.7.7.7.U a u   ",
"      . o @ + # $ $ # #                     i g.{.{.{.{.{.{.].].].].].]./././.9.q   ",
"  . . . X o O @ + + +                       i g.{.{.[.[.].].].]././././././.(.0.q   ",
"                                            u l t.t.t.t.t.t.t.t.9.9.9.9.9.9.9.i w   ",
"                                              w q q q q q q q q q q q q q q q w     ",
"                                                                                    ",
"                                                                                    ",
"                                                                                    ",
"                                                                                    ",
"                                                                                    "
};
